<svg xmlns="http://www.w3.org/2000/svg" xmlns:xlink="http://www.w3.org/1999/xlink" preserveAspectRatio="xMidYMid meet" version="1.0" viewBox="0.0 0.0 489.4 492.6" zoomAndPan="magnify" style="fill: rgb(0, 0, 0);" original_string_length="19501"><defs><clipPath id="__id155_s1rvhk1d9m"><path d="M 0 392 L 126 392 L 126 492.589844 L 0 492.589844 Z M 0 392"/></clipPath><clipPath id="__id156_s1rvhk1d9m"><path d="M 464 0 L 489.441406 0 L 489.441406 132 L 464 132 Z M 464 0"/></clipPath></defs><g><g id="__id157_s1rvhk1d9m"><path d="M 198.28125 260.75 C 197.9375 260.75 197.589844 260.632812 197.308594 260.390625 C 196.679688 259.851562 196.601562 258.90625 197.140625 258.277344 C 205.0625 248.996094 213.667969 241.515625 222.71875 236.039062 C 229.449219 231.964844 243.398438 223.527344 250.816406 230.871094 C 251.402344 231.453125 251.40625 232.402344 250.824219 232.992188 C 250.242188 233.582031 249.292969 233.585938 248.703125 233.003906 C 242.953125 227.304688 229.878906 235.214844 224.296875 238.589844 C 215.496094 243.914062 207.136719 251.1875 199.421875 260.222656 C 199.125 260.570312 198.703125 260.75 198.28125 260.75" style="fill: rgb(255, 255, 255);"/></g><g id="__id158_s1rvhk1d9m"><path d="M 150.25 362.851562 C 148.339844 362.851562 146.429688 362.742188 144.519531 362.515625 C 135.027344 361.378906 128.039062 356.359375 125.34375 348.746094 C 125.066406 347.964844 125.476562 347.109375 126.257812 346.832031 C 127.039062 346.554688 127.894531 346.964844 128.171875 347.746094 C 130.472656 354.242188 136.558594 358.539062 144.875 359.535156 C 162.746094 361.675781 181.152344 352.554688 196.800781 343.347656 C 214.410156 332.988281 231.90625 319.839844 248.804688 304.261719 C 249.410156 303.699219 250.359375 303.734375 250.921875 304.347656 C 251.484375 304.953125 251.445312 305.902344 250.835938 306.464844 C 233.785156 322.1875 216.117188 335.46875 198.320312 345.933594 C 183.878906 354.429688 167.105469 362.851562 150.25 362.851562" style="fill: rgb(255, 255, 255);"/></g><g id="__id159_s1rvhk1d9m"><path d="M 271.148438 285.574219 C 270.785156 285.574219 270.417969 285.441406 270.128906 285.171875 C 269.523438 284.609375 269.488281 283.660156 270.050781 283.050781 C 278.835938 273.601562 286.890625 264.074219 294.003906 254.726562 C 294.503906 254.066406 295.445312 253.9375 296.105469 254.441406 C 296.765625 254.941406 296.890625 255.882812 296.390625 256.542969 C 289.222656 265.96875 281.097656 275.574219 272.25 285.09375 C 271.953125 285.414062 271.554688 285.574219 271.148438 285.574219" style="fill: rgb(255, 255, 255);"/></g><g id="__id160_s1rvhk1d9m"><path d="M 305.664062 242.535156 C 305.375 242.535156 305.082031 242.453125 304.824219 242.277344 C 304.140625 241.816406 303.957031 240.882812 304.421875 240.195312 C 308.390625 234.296875 312.234375 228.1875 315.84375 222.039062 C 321.757812 211.960938 327.683594 200.992188 330.980469 189.054688 C 334.476562 176.394531 334.273438 166.105469 330.375 158.484375 C 329.996094 157.746094 330.289062 156.84375 331.023438 156.464844 C 331.761719 156.089844 332.667969 156.378906 333.042969 157.117188 C 337.296875 165.429688 337.574219 176.445312 333.871094 189.855469 C 330.484375 202.125 324.449219 213.304688 318.429688 223.558594 C 314.792969 229.761719 310.914062 235.921875 306.90625 241.871094 C 306.617188 242.300781 306.144531 242.535156 305.664062 242.535156" style="fill: rgb(255, 255, 255);"/></g><g id="__id161_s1rvhk1d9m"><path d="M 112.582031 414.554688 C 111.796875 414.554688 111.011719 414.542969 110.222656 414.511719 C 93.664062 413.878906 80.78125 404.789062 76.597656 390.792969 C 72.109375 375.777344 76.628906 359.511719 81.066406 347.019531 C 91.109375 318.746094 109.027344 289.785156 137.445312 255.878906 C 160.878906 227.925781 186.875 203.199219 214.710938 182.394531 C 230.125 170.871094 245.652344 161.246094 260.863281 153.785156 C 273.328125 147.671875 291.933594 139.796875 309.507812 142.019531 C 312.769531 142.429688 315.851562 143.210938 318.664062 144.339844 C 319.433594 144.648438 319.808594 145.523438 319.5 146.292969 C 319.191406 147.0625 318.316406 147.433594 317.550781 147.125 C 314.972656 146.09375 312.140625 145.375 309.132812 144.996094 C 292.355469 142.871094 274.304688 150.535156 262.183594 156.480469 C 247.140625 163.859375 231.773438 173.386719 216.507812 184.796875 C 188.855469 205.464844 163.03125 230.027344 139.746094 257.808594 C 111.5625 291.429688 93.8125 320.097656 83.894531 348.023438 C 79.609375 360.085938 75.234375 375.75 79.472656 389.933594 C 83.277344 402.660156 95.101562 410.929688 110.335938 411.511719 C 125.503906 412.089844 141.019531 406.644531 155.53125 400.667969 C 171.296875 394.175781 186.890625 385.804688 203.199219 375.070312 C 203.894531 374.617188 204.824219 374.808594 205.277344 375.5 C 205.734375 376.191406 205.539062 377.121094 204.847656 377.578125 C 188.375 388.414062 172.617188 396.875 156.671875 403.441406 C 142.589844 409.242188 127.546875 414.554688 112.582031 414.554688" style="fill: rgb(255, 255, 255);"/></g><g id="__id162_s1rvhk1d9m"><path d="M 217.964844 368.199219 C 217.5 368.199219 217.042969 367.984375 216.75 367.578125 C 216.265625 366.90625 216.414062 365.96875 217.085938 365.484375 C 220.15625 363.265625 223.308594 360.921875 226.453125 358.515625 C 251.574219 339.316406 275.769531 317.21875 298.367188 292.839844 C 321.617188 267.761719 341.691406 242.011719 358.035156 216.308594 C 386.597656 171.394531 391.902344 145.1875 393.40625 129.378906 C 394.320312 119.777344 393.984375 102.042969 381.460938 91.195312 C 372.882812 83.769531 360.519531 80.59375 344.722656 81.738281 C 311.492188 84.160156 279.183594 101.324219 251.964844 117.796875 C 251.257812 118.226562 250.332031 118 249.902344 117.289062 C 249.472656 116.582031 249.699219 115.660156 250.410156 115.230469 C 277.933594 98.574219 310.640625 81.214844 344.503906 78.746094 C 361.121094 77.535156 374.222656 80.964844 383.421875 88.929688 C 396.96875 100.65625 397.363281 119.484375 396.394531 129.664062 C 393.1875 163.308594 374.414062 196.148438 360.566406 217.917969 C 344.128906 243.773438 323.941406 269.667969 300.566406 294.878906 C 277.855469 319.382812 253.53125 341.597656 228.273438 360.898438 C 225.105469 363.320312 221.933594 365.679688 218.84375 367.914062 C 218.578125 368.105469 218.269531 368.199219 217.964844 368.199219" style="fill: rgb(255, 255, 255);"/></g><g id="__id163_s1rvhk1d9m"><path d="M 173.019531 176.523438 C 172.601562 176.523438 172.1875 176.351562 171.890625 176.011719 C 171.34375 175.390625 171.40625 174.445312 172.027344 173.894531 C 195.320312 153.394531 217.105469 136.628906 238.617188 122.632812 C 239.3125 122.179688 240.242188 122.378906 240.695312 123.074219 C 241.144531 123.765625 240.949219 124.695312 240.253906 125.148438 C 218.863281 139.0625 197.195312 155.742188 174.007812 176.148438 C 173.722656 176.398438 173.371094 176.523438 173.019531 176.523438" style="fill: rgb(255, 255, 255);"/></g><g clip-path="url(#__id155_s1rvhk1d9m)" id="__id164_s1rvhk1d9m"><path d="M 57.714844 492.589844 C 52.21875 492.589844 46.722656 492.105469 41.25 491.023438 C 27.570312 488.3125 16.738281 481.960938 9.925781 472.664062 C 3.902344 464.441406 0.488281 453.570312 0.0546875 441.222656 C -0.421875 427.65625 2.28125 412.625 8.566406 393.921875 C 8.832031 393.136719 9.679688 392.710938 10.46875 392.976562 C 11.253906 393.242188 11.675781 394.089844 11.410156 394.875 C 5.242188 413.230469 2.585938 427.921875 3.050781 441.117188 C 3.464844 452.863281 6.679688 463.15625 12.34375 470.890625 C 18.707031 479.574219 28.90625 485.515625 41.832031 488.078125 C 69.738281 493.609375 98.71875 482.921875 123.691406 472.46875 C 124.453125 472.148438 125.335938 472.511719 125.652344 473.273438 C 125.972656 474.039062 125.613281 474.917969 124.847656 475.238281 C 104.304688 483.835938 81.0625 492.589844 57.714844 492.589844" style="fill: rgb(255, 255, 255);"/></g><g id="__id165_s1rvhk1d9m"><path d="M 141.890625 467.414062 C 141.332031 467.414062 140.796875 467.101562 140.539062 466.566406 C 140.179688 465.820312 140.492188 464.921875 141.238281 464.5625 C 142.695312 463.859375 144.152344 463.144531 145.601562 462.421875 C 146.339844 462.054688 147.242188 462.355469 147.613281 463.097656 C 147.980469 463.839844 147.679688 464.738281 146.9375 465.109375 C 145.476562 465.835938 144.011719 466.554688 142.542969 467.261719 C 142.332031 467.363281 142.109375 467.414062 141.890625 467.414062" style="fill: rgb(255, 255, 255);"/></g><g id="__id166_s1rvhk1d9m"><path d="M 161.695312 457.183594 C 161.164062 457.183594 160.648438 456.898438 160.378906 456.398438 C 159.980469 455.667969 160.25 454.757812 160.980469 454.363281 C 205.015625 430.464844 248.15625 398.09375 296.757812 352.488281 C 297.359375 351.921875 298.3125 351.949219 298.878906 352.554688 C 299.445312 353.160156 299.414062 354.109375 298.808594 354.675781 C 250.019531 400.460938 206.675781 432.972656 162.410156 457 C 162.183594 457.121094 161.9375 457.183594 161.695312 457.183594" style="fill: rgb(255, 255, 255);"/></g><g id="__id167_s1rvhk1d9m"><path d="M 64.363281 286.109375 C 58.488281 286.109375 53.710938 290.882812 53.710938 296.753906 C 53.710938 299.867188 55.070312 302.816406 57.4375 304.839844 C 59.367188 306.496094 61.824219 307.40625 64.363281 307.40625 C 70.234375 307.40625 75.015625 302.625 75.015625 296.753906 C 75.015625 293 73.007812 289.492188 69.773438 287.589844 C 68.128906 286.621094 66.261719 286.109375 64.363281 286.109375 Z M 64.363281 310.40625 C 61.109375 310.40625 57.957031 309.238281 55.488281 307.121094 C 52.453125 304.527344 50.710938 300.746094 50.710938 296.753906 C 50.710938 289.230469 56.835938 283.109375 64.363281 283.109375 C 66.792969 283.109375 69.191406 283.765625 71.292969 285.003906 C 75.441406 287.441406 78.015625 291.941406 78.015625 296.753906 C 78.015625 304.28125 71.890625 310.40625 64.363281 310.40625" style="fill: rgb(255, 255, 255);"/></g><g id="__id168_s1rvhk1d9m"><path d="M 150.175781 197.585938 C 149.78125 197.585938 149.390625 197.429688 149.09375 197.125 C 148.519531 196.527344 148.535156 195.578125 149.132812 195.003906 C 151.410156 192.808594 153.699219 190.628906 155.996094 188.464844 C 156.601562 187.894531 157.550781 187.925781 158.117188 188.53125 C 158.6875 189.132812 158.65625 190.082031 158.054688 190.648438 C 155.765625 192.804688 153.484375 194.980469 151.214844 197.164062 C 150.925781 197.445312 150.550781 197.585938 150.175781 197.585938" style="fill: rgb(255, 255, 255);"/></g><g id="__id169_s1rvhk1d9m"><path d="M 70.53125 287.796875 C 70.222656 287.796875 69.90625 287.699219 69.640625 287.5 C 68.972656 287.007812 68.835938 286.066406 69.328125 285.402344 C 84.34375 265.179688 100.832031 245.335938 118.335938 226.421875 C 126.140625 217.976562 134.359375 209.496094 142.761719 201.207031 C 143.351562 200.625 144.300781 200.632812 144.882812 201.222656 C 145.464844 201.8125 145.457031 202.761719 144.867188 203.34375 C 136.496094 211.597656 128.3125 220.046875 120.539062 228.457031 C 103.105469 247.292969 86.6875 267.050781 71.738281 287.191406 C 71.445312 287.585938 70.992188 287.796875 70.53125 287.796875" style="fill: rgb(255, 255, 255);"/></g><g id="__id170_s1rvhk1d9m"><path d="M 15.21875 381.886719 C 15.027344 381.886719 14.835938 381.851562 14.652344 381.773438 C 13.882812 381.460938 13.515625 380.585938 13.828125 379.816406 C 23.59375 355.914062 37.136719 331.484375 55.226562 305.132812 C 55.695312 304.449219 56.628906 304.277344 57.3125 304.746094 C 57.996094 305.214844 58.167969 306.148438 57.699219 306.828125 C 39.730469 333.003906 26.289062 357.25 16.605469 380.953125 C 16.367188 381.535156 15.808594 381.886719 15.21875 381.886719" style="fill: rgb(255, 255, 255);"/></g><g id="__id171_s1rvhk1d9m"><path d="M 460.789062 130.628906 C 454.921875 130.628906 450.144531 135.410156 450.144531 141.28125 C 450.144531 145.335938 452.507812 149.105469 456.164062 150.882812 C 457.609375 151.578125 459.167969 151.933594 460.789062 151.933594 C 466.664062 151.933594 471.441406 147.15625 471.441406 141.28125 C 471.441406 137.199219 469.058594 133.421875 465.367188 131.65625 C 463.960938 130.984375 462.378906 130.628906 460.789062 130.628906 Z M 460.789062 154.933594 C 458.710938 154.933594 456.714844 154.480469 454.855469 153.582031 C 450.171875 151.304688 447.144531 146.476562 447.144531 141.28125 C 447.144531 133.753906 453.265625 127.628906 460.789062 127.628906 C 462.820312 127.628906 464.851562 128.085938 466.660156 128.949219 C 466.664062 128.949219 466.664062 128.949219 466.664062 128.949219 C 471.390625 131.210938 474.441406 136.050781 474.441406 141.28125 C 474.441406 148.808594 468.316406 154.933594 460.789062 154.933594" style="fill: rgb(255, 255, 255);"/></g><g clip-path="url(#__id156_s1rvhk1d9m)" id="__id172_s1rvhk1d9m"><path d="M 466.015625 131.804688 C 465.808594 131.804688 465.597656 131.761719 465.398438 131.671875 C 464.644531 131.328125 464.308594 130.441406 464.648438 129.6875 L 465.089844 128.703125 C 476.492188 102.652344 482.996094 81.089844 485.554688 60.855469 C 487.761719 43.351562 486.933594 19.023438 470.46875 2.554688 C 469.882812 1.972656 469.882812 1.019531 470.46875 0.433594 C 471.054688 -0.152344 472.003906 -0.152344 472.589844 0.433594 C 489.914062 17.761719 490.820312 43.058594 488.53125 61.230469 C 485.9375 81.757812 479.359375 103.585938 467.832031 129.921875 L 467.382812 130.921875 C 467.132812 131.476562 466.585938 131.804688 466.015625 131.804688" style="fill: rgb(255, 255, 255);"/></g><g id="__id173_s1rvhk1d9m"><path d="M 313.523438 339.855469 C 313.136719 339.855469 312.75 339.703125 312.457031 339.410156 C 311.875 338.820312 311.878906 337.871094 312.46875 337.289062 C 314.890625 334.882812 317.308594 332.46875 319.703125 330.03125 C 339.472656 309.988281 358.433594 288.9375 376.058594 267.460938 C 394.277344 245.246094 410.992188 222.511719 425.734375 199.886719 C 436.953125 182.699219 446.257812 166.886719 454.175781 151.542969 C 454.554688 150.808594 455.460938 150.519531 456.195312 150.898438 C 456.933594 151.277344 457.222656 152.183594 456.84375 152.917969 C 448.875 168.355469 439.523438 184.253906 428.246094 201.523438 C 413.445312 224.242188 396.664062 247.066406 378.378906 269.363281 C 360.695312 290.910156 341.675781 312.03125 321.839844 332.136719 C 319.4375 334.578125 317.015625 337.003906 314.578125 339.417969 C 314.285156 339.710938 313.902344 339.855469 313.523438 339.855469" style="fill: rgb(255, 255, 255);"/></g><g id="__id174_s1rvhk1d9m"><path d="M 284.054688 178.097656 C 279.984375 178.097656 276.511719 180.855469 275.601562 184.804688 C 275.445312 185.464844 275.367188 186.105469 275.367188 186.769531 C 275.367188 191.558594 279.265625 195.453125 284.054688 195.453125 C 286.976562 195.453125 289.679688 194.003906 291.285156 191.570312 C 292.234375 190.136719 292.734375 188.480469 292.734375 186.769531 C 292.734375 181.988281 288.839844 178.097656 284.054688 178.097656 Z M 284.054688 198.453125 C 277.609375 198.453125 272.367188 193.214844 272.367188 186.769531 C 272.367188 185.882812 272.472656 184.988281 272.683594 184.117188 C 273.902344 178.8125 278.582031 175.097656 284.054688 175.097656 C 290.492188 175.097656 295.734375 180.335938 295.734375 186.769531 C 295.734375 189.070312 295.0625 191.300781 293.789062 193.226562 C 291.625 196.5 287.984375 198.453125 284.054688 198.453125" style="fill: rgb(255, 255, 255);"/></g><g id="__id175_s1rvhk1d9m"><path d="M 174.796875 329.371094 C 166.898438 329.375 158.265625 326.199219 156.445312 316.9375 C 153.6875 302.890625 164.132812 286.648438 169.152344 278.84375 C 176.503906 267.398438 185.523438 256.382812 195.960938 246.109375 C 204.132812 238.0625 215.132812 227.859375 227.800781 220.285156 C 237.171875 214.679688 250.929688 207.648438 262.121094 211.316406 C 265.632812 212.46875 268.074219 214.621094 269.371094 217.71875 C 271.828125 223.570312 270.101562 232.539062 264.246094 244.375 C 257.617188 257.789062 247.601562 268.710938 239.617188 276.722656 C 227.453125 288.933594 216.621094 297.203125 205.53125 302.746094 C 205.203125 302.910156 204.871094 303.066406 204.507812 303.230469 C 203.753906 303.574219 202.863281 303.242188 202.523438 302.484375 C 202.179688 301.730469 202.511719 300.84375 203.265625 300.5 C 203.59375 300.351562 203.890625 300.210938 204.1875 300.0625 C 214.984375 294.667969 225.5625 286.578125 237.492188 274.605469 C 245.316406 266.753906 255.121094 256.070312 261.554688 243.046875 C 266.933594 232.179688 268.679688 223.820312 266.605469 218.878906 C 265.644531 216.589844 263.871094 215.046875 261.1875 214.167969 C 249.992188 210.503906 234.449219 219.804688 229.339844 222.859375 C 216.945312 230.269531 206.117188 240.320312 198.066406 248.246094 C 187.785156 258.363281 178.90625 269.203125 171.675781 280.464844 C 166.867188 287.941406 156.863281 303.496094 159.390625 316.359375 C 161.054688 324.828125 170.175781 326.976562 177.480469 326.238281 C 189.5 325.023438 201.1875 318.125 212.03125 310.855469 C 234.554688 295.742188 255.28125 275.410156 271.96875 252.058594 C 280.1875 240.550781 286.148438 229.601562 290.1875 218.585938 C 292.890625 211.21875 295.941406 200.570312 291.269531 193.199219 C 290.828125 192.5 291.035156 191.574219 291.734375 191.128906 C 292.433594 190.6875 293.359375 190.894531 293.804688 191.59375 C 299.183594 200.082031 295.925781 211.652344 293.003906 219.617188 C 288.871094 230.890625 282.789062 242.070312 274.410156 253.800781 C 257.515625 277.445312 236.523438 298.035156 213.699219 313.347656 C 202.535156 320.832031 190.457031 327.941406 177.785156 329.222656 C 176.8125 329.320312 175.808594 329.371094 174.796875 329.371094" style="fill: rgb(255, 255, 255);"/></g><g id="__id176_s1rvhk1d9m"><path d="M 196.4375 229.308594 C 196.027344 229.308594 195.613281 229.136719 195.320312 228.804688 C 194.765625 228.1875 194.820312 227.238281 195.441406 226.6875 C 204.742188 218.394531 214.5 210.777344 224.4375 204.039062 C 236.308594 196.003906 248.046875 189.972656 259.324219 186.117188 C 264.695312 184.277344 269.652344 183.21875 274.054688 182.96875 C 274.910156 182.933594 275.59375 183.554688 275.640625 184.382812 C 275.6875 185.207031 275.054688 185.917969 274.226562 185.964844 C 270.097656 186.199219 265.410156 187.203125 260.296875 188.953125 C 249.269531 192.726562 237.773438 198.636719 226.121094 206.523438 C 216.292969 213.1875 206.640625 220.722656 197.4375 228.925781 C 197.148438 229.183594 196.792969 229.308594 196.4375 229.308594" style="fill: rgb(255, 255, 255);"/></g><g id="__id177_s1rvhk1d9m"><path d="M 188.902344 307.089844 C 185.761719 307.089844 182.601562 306.421875 180.355469 304.363281 C 177.96875 302.175781 177.015625 298.820312 177.515625 294.394531 C 178.15625 288.722656 180.492188 282.644531 184.871094 275.265625 C 185.292969 274.554688 186.214844 274.316406 186.925781 274.738281 C 187.640625 275.164062 187.875 276.082031 187.449219 276.796875 C 183.355469 283.699219 181.078125 289.566406 180.496094 294.730469 C 180.109375 298.152344 180.742188 300.648438 182.382812 302.152344 C 184.527344 304.121094 188.675781 304.609375 194.058594 303.527344 C 194.875 303.367188 195.660156 303.890625 195.824219 304.699219 C 195.988281 305.511719 195.460938 306.304688 194.648438 306.46875 C 192.902344 306.820312 190.90625 307.089844 188.902344 307.089844" style="fill: rgb(255, 255, 255);"/></g><g id="__id178_s1rvhk1d9m"><path d="M 126.050781 331.566406 C 125.953125 331.566406 125.859375 331.558594 125.765625 331.539062 C 124.953125 331.382812 124.417969 330.597656 124.574219 329.785156 C 127.101562 316.570312 133.929688 303.984375 140.128906 293.226562 C 146.652344 281.898438 154.554688 270.621094 163.613281 259.714844 C 171.777344 249.859375 180.710938 240.375 190.164062 231.519531 C 190.769531 230.953125 191.71875 230.984375 192.285156 231.589844 C 192.851562 232.195312 192.820312 233.144531 192.214844 233.710938 C 182.851562 242.476562 174.007812 251.871094 165.921875 261.628906 C 156.972656 272.410156 149.167969 283.542969 142.726562 294.726562 C 136.648438 305.269531 129.960938 317.589844 127.519531 330.347656 C 127.382812 331.066406 126.753906 331.566406 126.050781 331.566406" style="fill: rgb(255, 255, 255);"/></g></g></svg>