<svg xmlns="http://www.w3.org/2000/svg" xmlns:xlink="http://www.w3.org/1999/xlink" preserveAspectRatio="xMidYMid meet" version="1.0" viewBox="-0.7 -4.1 127.5 127.3" zoomAndPan="magnify" style="fill: rgb(255, 255, 255);" original_string_length="6066"><g id="__id180_s1rvhk1d9m"><path d="M117.227,2.272c-6.914-6.37-24.705,0.881-46.482,18.915c-6.608-1.472-13.696-1.197-20.584,1.162 c-0.498,0.171-0.989,0.357-1.477,0.547c-0.166,0.019-0.318,0.079-0.452,0.176c-8.693,3.504-15.695,10.001-19.849,18.483 c-4.318,8.816-5.047,18.747-2.104,28.075C10.477,92.462,4.896,110.52,11.721,116.807c1.662,1.53,3.944,2.263,6.735,2.262 c9.529,0,24.989-8.538,41.895-22.952c0.706,0.039,1.412,0.072,2.116,0.072c4.165,0,8.285-0.69,12.281-2.059 c17.165-5.88,27.746-23.066,25.302-40.977c5.646-7.785,10.354-15.379,13.825-22.384C120.805,16.784,121.995,6.663,117.227,2.272z M76.753,25.233c0.113,0.078,0.234,0.132,0.365,0.159c1.133,0.505,2.241,1.065,3.317,1.686 c-2.807,11.086-8.578,20.924-17.201,29.305c5.058-12.315,7.25-23.267,6.693-33.33c0.22,0.047,0.439,0.099,0.658,0.15 c0.113,0.048,0.23,0.076,0.352,0.08C72.932,23.766,74.877,24.421,76.753,25.233z M93.856,40.756 c-1.726,2.783-3.871,5.151-6.432,7.045c1.922-4.058,2.972-8.057,3.168-11.954C91.799,37.372,92.892,39.012,93.856,40.756z M97.107,42.793c-3.722-8.391-10.147-14.808-17.85-18.607c13.88-10.782,25.047-15.613,28.644-12.3 c2.783,2.563,1.054,10.333-4.626,20.782C101.523,35.89,99.447,39.287,97.107,42.793z M50.809,24.241 c2.886-0.988,5.809-1.591,8.713-1.836c-1.723,7.629-6.545,14.964-15.001,22.76c3.329-7.584,5.041-14.339,5.245-20.538 C50.113,24.497,50.457,24.362,50.809,24.241z M30.179,42.434c3.731-7.619,9.89-13.546,17.538-16.969 c-0.392,6.838-2.683,14.432-7.032,23.171c-0.211,0.424-0.095,0.938,0.277,1.231c0.182,0.143,0.4,0.214,0.618,0.214 c0.229,0,0.458-0.078,0.644-0.234c11.27-9.476,17.434-18.254,19.36-27.551c2.129-0.057,4.242,0.072,6.314,0.386 c0.712,11.013-2.013,23.178-8.337,37.162c-0.193,0.427-0.064,0.931,0.311,1.212c0.179,0.134,0.39,0.2,0.6,0.2 c0.232,0,0.464-0.081,0.651-0.241c10.672-9.152,17.755-20.198,21.089-32.841c2.318,1.524,4.467,3.321,6.395,5.37 c0.224,5.312-1.345,10.894-4.688,16.6c-0.227,0.387-0.168,0.877,0.143,1.199c0.193,0.201,0.455,0.307,0.721,0.307 c0.161,0,0.323-0.039,0.472-0.119c3.922-2.105,7.163-5.028,9.659-8.7c0.3,0.635,0.585,1.282,0.85,1.941 c-5.536,8.045-12.422,16.61-20.165,25.016c-1.945,2.111-3.904,4.164-5.868,6.161c0.152-2.016-0.138-4.231-0.874-6.692 c-0.114-0.381-0.442-0.658-0.836-0.706c-0.393-0.059-0.78,0.142-0.982,0.483c-5.176,8.755-12.021,15.975-20.335,21.49 c-4.073-1.994-7.72-4.724-10.752-8.035c8.24-5.901,13.54-13.57,15.743-22.822c0.108-0.451-0.11-0.918-0.525-1.126 s-0.919-0.102-1.216,0.254c-6.999,8.399-13.008,13.84-18.824,17.047c-1.063-1.886-1.962-3.877-2.675-5.957 C25.345,60.804,25.957,51.054,30.179,42.434z M51.63,92.499c-0.948-0.301-1.878-0.642-2.791-1.017 c7.45-5.14,13.724-11.631,18.659-19.374c0.454,2.448,0.335,4.565-0.345,6.427C61.915,83.711,56.677,88.421,51.63,92.499z M32.152,77.547c5.131-2.84,10.371-7.295,16.224-13.854c-2.589,6.842-7.211,12.626-13.748,17.271 C33.739,79.876,32.911,78.735,32.152,77.547z M30.006,77.854c1.061,1.751,2.256,3.408,3.577,4.958 c0.015,0.028,0.018,0.059,0.036,0.086c0.07,0.102,0.159,0.181,0.256,0.249c3.413,3.911,7.61,7.109,12.348,9.361 c0.097,0.066,0.2,0.12,0.312,0.148c1.053,0.489,2.128,0.935,3.23,1.327c-3.059,2.399-6.04,4.561-8.892,6.429 c-9.95,6.519-17.55,8.878-20.333,6.313C17.015,103.478,20.74,92.217,30.006,77.854z M74.1,92.238 c-3.745,1.284-7.605,1.928-11.506,1.94c6.284-5.509,12.737-11.796,19.136-18.743c6.06-6.578,11.636-13.287,16.562-19.888 C99.532,71.731,89.68,86.901,74.1,92.238z M98.207,52.287c-0.001,0.001-0.001,0.002-0.002,0.003 c-5.244,7.204-11.297,14.572-17.945,21.79c-27.86,30.243-58.626,49.139-67.183,41.257c-5.744-5.291-0.105-22.608,14.026-43.373 c0.524,1.349,1.123,2.657,1.791,3.925c-10.715,16.348-14.262,28.114-9.71,32.307c1.192,1.099,2.763,1.565,4.574,1.565 c5.207-0.001,12.391-3.864,18.211-7.677c8.243-5.4,17.509-13.141,26.757-22.292c0.007-0.007,0.014-0.014,0.021-0.021 c2.786-2.757,5.57-5.637,8.324-8.627c11.903-12.922,21.833-26.247,27.961-37.521c4.478-8.237,8.846-18.951,4.224-23.208 c-6.504-5.994-24.201,6.646-32.055,12.828c-1.322-0.556-2.675-1.038-4.055-1.442C92.99,5.625,110.043-1.626,115.872,3.742 c3.999,3.684,2.618,13.211-3.789,26.139C108.613,36.883,103.885,44.488,98.207,52.287z" style="fill: inherit;"/><path d="M11.134,84.036c0.689-1.407,0.789-2.998,0.281-4.48c-0.507-1.482-1.562-2.678-2.969-3.367 c-1.407-0.689-2.998-0.788-4.481-0.281c-3.06,1.049-4.696,4.391-3.648,7.45c0.833,2.433,3.116,3.966,5.554,3.965 c0.629,0,1.269-0.102,1.896-0.316C9.249,86.498,10.445,85.444,11.134,84.036z M9.337,83.157c-0.454,0.928-1.242,1.623-2.219,1.957 c-2.017,0.691-4.219-0.387-4.909-2.404c-0.691-2.016,0.388-4.219,2.404-4.909c0.411-0.141,0.834-0.211,1.256-0.211 c0.582,0,1.16,0.133,1.697,0.396c0.927,0.455,1.622,1.243,1.957,2.22c0,0,0,0,0,0C9.857,81.181,9.792,82.23,9.337,83.157z" style="fill: inherit;"/><path d="M125.682,41.318C125.681,41.318,125.681,41.318,125.682,41.318c-1.049-3.061-4.392-4.698-7.45-3.648 c-1.482,0.508-2.678,1.562-3.368,2.97c-0.689,1.407-0.789,2.998-0.281,4.48s1.563,2.678,2.969,3.367 c0.815,0.399,1.693,0.601,2.575,0.601c0.64,0,1.283-0.106,1.906-0.319C125.093,47.719,126.729,44.377,125.682,41.318z M121.385,46.875c-0.977,0.333-2.026,0.269-2.953-0.185c-0.927-0.455-1.622-1.243-1.957-2.22c-0.334-0.977-0.269-2.025,0.186-2.953 c0.454-0.927,1.242-1.622,2.219-1.956c0.411-0.141,0.834-0.211,1.256-0.211c0.581,0,1.159,0.133,1.696,0.396 c0.927,0.455,1.623,1.243,1.957,2.22C124.48,43.982,123.401,46.185,121.385,46.875z" style="fill: inherit;"/><path d="M69.192,15.966c0.568,0.278,1.18,0.419,1.794,0.419c0.446,0,0.894-0.074,1.328-0.223c2.131-0.73,3.271-3.06,2.542-5.191 c0,0,0,0,0,0c-0.73-2.131-3.058-3.272-5.19-2.542c-2.131,0.73-3.271,3.06-2.542,5.191C67.477,14.653,68.211,15.486,69.192,15.966z M70.313,10.322c0.223-0.076,0.451-0.112,0.674-0.112c0.868,0,1.68,0.545,1.976,1.41c0.373,1.089-0.209,2.277-1.298,2.65 c-0.528,0.182-1.094,0.145-1.594-0.1c-0.5-0.245-0.876-0.671-1.056-1.198C68.643,11.883,69.225,10.695,70.313,10.322z" style="fill: inherit;"/></g></svg>